<?xml version="1.0" encoding="iso-8859-1"?>
<!-- Generator: Adobe Illustrator 18.0.0, SVG Export Plug-In . SVG Version: 6.00 Build 0)  -->
<!DOCTYPE svg PUBLIC "-//W3C//DTD SVG 1.1//EN" "http://www.w3.org/Graphics/SVG/1.1/DTD/svg11.dtd">
<svg version="1.1" id="Capa_1" xmlns="http://www.w3.org/2000/svg" xmlns:xlink="http://www.w3.org/1999/xlink" x="0px" y="0px"
	 viewBox="0 0 297.502 297.502" style="enable-background:new 0 0 297.502 297.502;" xml:space="preserve">
<g id="XMLID_39_">
	<g>
		<path style="fill:#7AC1A3;" d="M221.227,90.799c32.38,32.39,23,99.79,16.2,131.78l-63.65-63.65v-39.23c0-5.8-4.7-10.5-10.5-10.5
			s-10.5,4.7-10.5,10.5v18.23l-47.45-47.45c-4.1-4.09-10.74-4.09-14.84,0c-4.1,4.1-4.1,10.75,0,14.85l11.13,11.13h-18.24
			c-5.79,0-10.5,4.7-10.5,10.5s4.71,10.5,10.5,10.5h39.23l51.64,51.64l-18.24-0.01c-5.79,0-10.49,4.7-10.49,10.5
			c0,5.8,4.7,10.5,10.49,10.5h39.24l27.35,27.35c-14.4,3.07-36.02,6.65-58.5,6.65c-33.46,0-58.12-7.7-73.29-22.87
			c-18.32-18.32-36.15-60.49-51.57-121.95c-7.73-30.85-13.04-59.5-15.82-75.86c16.36,2.78,45,8.09,75.85,15.83
			C160.737,54.649,202.907,72.479,221.227,90.799z"/>
		<path d="M294.177,279.329c4.1,4.1,4.1,10.75,0,14.84c-2.05,2.05-4.74,3.08-7.42,3.08c-2.69,0-5.38-1.03-7.43-3.08l-39.26-39.26
			c-12.66,3.29-43.11,10.17-75.97,10.17c-39.23,0-68.89-9.76-88.14-29.01c-50.03-50.03-74.58-216.75-75.6-223.82
			c-0.47-3.28,0.63-6.59,2.97-8.93s5.64-3.43,8.92-2.96c7.07,1.02,173.79,25.57,223.82,75.6c45.75,45.75,25.38,139.12,18.85,164.11
			L294.177,279.329z M237.427,222.579c6.8-31.99,16.18-99.39-16.2-131.78c-18.32-18.32-60.49-36.15-121.96-51.56
			c-30.85-7.74-59.49-13.05-75.85-15.83c2.78,16.36,8.09,45.01,15.82,75.86c15.42,61.46,33.25,103.63,51.57,121.95
			c15.17,15.17,39.83,22.87,73.29,22.87c22.48,0,44.1-3.58,58.5-6.65l-27.35-27.35h-39.24c-5.79,0-10.49-4.7-10.49-10.5
			c0-5.8,4.7-10.5,10.49-10.5l18.24,0.01l-51.64-51.64h-39.23c-5.79,0-10.5-4.7-10.5-10.5s4.71-10.5,10.5-10.5h18.24l-11.13-11.13
			c-4.1-4.1-4.1-10.75,0-14.85c4.1-4.09,10.74-4.09,14.84,0l47.45,47.45v-18.23c0-5.8,4.7-10.5,10.5-10.5s10.5,4.7,10.5,10.5v39.23
			L237.427,222.579z"/>
	</g>
	<g>
	</g>
</g>
<g>
</g>
<g>
</g>
<g>
</g>
<g>
</g>
<g>
</g>
<g>
</g>
<g>
</g>
<g>
</g>
<g>
</g>
<g>
</g>
<g>
</g>
<g>
</g>
<g>
</g>
<g>
</g>
<g>
</g>
</svg>
