<svg id="Layer_1" data-name="Layer 1" xmlns="http://www.w3.org/2000/svg" viewBox="0 0 130.23 35.56"><defs><style>.cls-1{fill:#fff;}</style></defs><title>our_garden_logo</title><path class="cls-1" d="M2.93,6.71c.13-.15.13-.39.35-.48,0,0,.06-.11.08-.17l.17-.37h0l.71-.38c.05-.11.12-.25.2-.39s.24-.15.33-.25a7.33,7.33,0,0,1,.7-.58A.35.35,0,0,1,5.7,4s.11,0,.13,0a1,1,0,0,1,.52-.44,2.11,2.11,0,0,0,.51-.36A1.3,1.3,0,0,1,7.09,3a3,3,0,0,0,.64-.27,2.32,2.32,0,0,1,.56-.29,1.56,1.56,0,0,1,.59-.22c.1,0,.2-.1.31-.16S9.32,2,9.37,2c.35.06.62-.16.94-.24a1.91,1.91,0,0,1,.49-.06c.45,0,.89,0,1.34.06a3.67,3.67,0,0,0,1.19,0,.63.63,0,0,1,.21,0,19.38,19.38,0,0,1,3,.42c.29.08.58.2.87.29l.33.12a6.06,6.06,0,0,1,3,2.14,2.48,2.48,0,0,1,.47.94c.1.41.2.82.29,1.23a1,1,0,0,1,0,.42,8.13,8.13,0,0,0-.06,1.12,2.16,2.16,0,0,1-.09.9.38.38,0,0,0,0,.21,7.56,7.56,0,0,1-.22,2.23.23.23,0,0,1,0,.07L20.58,13c-.31.18-.24.54-.36.8a2.72,2.72,0,0,1-.29,1.29,8.24,8.24,0,0,1-.57,1.59A2.93,2.93,0,0,1,19,17.7a1.33,1.33,0,0,1-.29.39,1.11,1.11,0,0,0-.38.73,1.66,1.66,0,0,1-.47.91,3.47,3.47,0,0,0-.62.93,1.26,1.26,0,0,0-.16.6.66.66,0,0,1-.32.6,1.31,1.31,0,0,0-.54.79,3.63,3.63,0,0,1-.55,1.05,5.9,5.9,0,0,0-.55,1,8.69,8.69,0,0,1-1.2,2c-.46.56-1,1.09-1.45,1.63a2.46,2.46,0,0,1-.26.23,3.62,3.62,0,0,0-.34.25A7.43,7.43,0,0,1,10.12,30a2.62,2.62,0,0,1-1.35.33,5.5,5.5,0,0,1-2.13-.41l-.46-.17a1.4,1.4,0,0,1-.26-.1,13.89,13.89,0,0,1-1.48-.95,5.55,5.55,0,0,1-1.74-2.35,1.27,1.27,0,0,0-.06-.2,3.54,3.54,0,0,1-.41-1.69c0-.63-.09-1.26-.14-1.89a5.69,5.69,0,0,1,.07-1.19,46,46,0,0,1,1.08-4.81,1,1,0,0,1,.14-.32,1.19,1.19,0,0,0,.18-.53,1.39,1.39,0,0,1,.09-.41c.17-.36.27-.75.43-1.11a7,7,0,0,1,.6-1.27.34.34,0,0,0,.06-.13,6.1,6.1,0,0,1,.71-1.6c.26-.52.61-1,.87-1.53S7.14,8.58,7.5,8A8.57,8.57,0,0,1,9.18,6.63a1,1,0,0,1,.25-.12c.46-.1.92-.2,1.38-.28a2.1,2.1,0,0,1,1.11.06.9.9,0,0,0,.27.06,2.56,2.56,0,0,1,1.28.54,2,2,0,0,1,.61.76A.3.3,0,0,1,14,8a1,1,0,0,1-.78.25.66.66,0,0,1-.6-.53A1.77,1.77,0,0,0,11.43,8a11.39,11.39,0,0,1-1.32.8A.92.92,0,0,0,9.84,9c-.25.25-.5.5-.73.76a1.34,1.34,0,0,0-.21.36,3.46,3.46,0,0,1-.51,1,3.21,3.21,0,0,0-.37.75,3.28,3.28,0,0,1-.21.45,14.15,14.15,0,0,0-1.14,2.34c-.22.49-.39,1-.61,1.5A17.94,17.94,0,0,0,5.19,19c-.17.66-.31,1.33-.46,2a.69.69,0,0,1-.06.2,1.9,1.9,0,0,0-.18,1c0,.42,0,.85,0,1.27,0,.78.15,1.54.2,2.31A2.85,2.85,0,0,0,5,26.91a4,4,0,0,0,.4.89l.59.7.17.22a1.21,1.21,0,0,0,.77.46,1.32,1.32,0,0,0,.62,0,8.63,8.63,0,0,0,2-1,2,2,0,0,0,.33-.25l1.23-1.16a1.68,1.68,0,0,0,.18-.21l.88-1.19a3.64,3.64,0,0,0,.52-.91A.75.75,0,0,1,13,24a.64.64,0,0,0,0,.13.33.33,0,0,0,.06.09s.08,0,.08-.07a.12.12,0,0,0,0-.1A.36.36,0,0,0,13,24c0-.06.05-.16.1-.18a.61.61,0,0,0,.44-.5,1,1,0,0,1,.51-.72.5.5,0,0,0,.18-.2,1.51,1.51,0,0,1,.5-.66.31.31,0,0,0,.07-.39c0-.07-.06-.13-.09-.2.17-.4.34-.82.53-1.21s.38-.75.59-1.12a7.21,7.21,0,0,1,.61-1.1,1.31,1.31,0,0,0,.19-.45,1,1,0,0,1,.19-.37.79.79,0,0,0,.15-.23,16.76,16.76,0,0,0,.69-2.06,3.59,3.59,0,0,1,.26-.79,6,6,0,0,0,.53-1.67c0-.12,0-.23.05-.35.16-.73.35-1.46.49-2.2.1-.55.15-1.12.21-1.68,0-.3.07-.61.09-.91a5.8,5.8,0,0,0-.17-1.67,1.53,1.53,0,0,0-.39-.74,3.7,3.7,0,0,1-.4-.57,1.58,1.58,0,0,0-.89-.65A8.45,8.45,0,0,0,15.21,3a.67.67,0,0,0-.33.09,2.59,2.59,0,0,1-1.08.29c-.56.05-1.13.08-1.69.14a7.36,7.36,0,0,0-.83.17A11,11,0,0,0,8.19,4.87a13.82,13.82,0,0,0-3.72,3,9.87,9.87,0,0,0-1.3,1.83,12.79,12.79,0,0,0-.73,1.6,2,2,0,0,0,.11,1.83.81.81,0,0,1,.07.2c0,.05-.06.14-.12.14s-.1,0-.14,0c-.3-.2-.64-.3-.94-.47A3.22,3.22,0,0,1,.28,12,1.72,1.72,0,0,1,0,10.75a.38.38,0,0,1,.17-.29.5.5,0,0,0,.23-.25c.09-.19.2-.37.27-.57a4.15,4.15,0,0,1,.69-1.22A1,1,0,0,0,1.63,8c0-.06.05-.06.25,0a5.66,5.66,0,0,0,.81-1v0A2.54,2.54,0,0,0,2.93,6.71Zm.25,14.61c0,.09.06.18.09.26s-.07.22.09.3a1.3,1.3,0,0,0,.11-.25c0-.18.06-.36.08-.54s0-.17,0-.26a.07.07,0,0,0,0-.05H3.5s-.07.08-.06.1a2.17,2.17,0,0,0,.14.22A.45.45,0,0,0,3.18,21.32Zm.46-2.39a2.93,2.93,0,0,0,.15-1,.75.75,0,0,0,.25-.4A3.67,3.67,0,0,1,4.21,17a1.41,1.41,0,0,0,.12-.4,1.46,1.46,0,0,1,.25-.91s0-.09,0-.13a.07.07,0,0,0,0,0s-.06,0-.07,0a1.51,1.51,0,0,0-.13.24,3.63,3.63,0,0,1-.3.7,1.46,1.46,0,0,0-.21.5,3.47,3.47,0,0,1-.11.4.58.58,0,0,0,.11.59c-.09,0-.19,0-.23.09s-.13.33-.2.49.21.3.11.5a2.23,2.23,0,0,0-.11.22s0,0,.07.08,0,0,0-.06,0-.17,0-.26S3.64,19,3.64,18.93ZM5,14.3a.13.13,0,0,0,0-.12.12.12,0,0,0-.11,0c-.11.22-.22.44-.31.66,0,0,.06.1.11.18C4.81,14.78,4.92,14.54,5,14.3Zm.22-.72s0,0,0,.05,0,0,0,0a.12.12,0,0,0,0-.05S5.25,13.56,5.25,13.58ZM18.66,15a.09.09,0,0,0,0,.05l0,0a.25.25,0,0,0,0-.33C18.74,14.81,18.63,14.86,18.66,15Zm.45-2.27v0l0,0Z"/><path class="cls-1" d="M38.17,15.71,37.44,17a3.4,3.4,0,0,0-.19.34A31.79,31.79,0,0,1,34.6,22a8,8,0,0,1-1.4,1.77,2.19,2.19,0,0,1-2.58.35,3,3,0,0,1-1.24-1,2.05,2.05,0,0,1-.4-1.28A14.59,14.59,0,0,1,29.65,18c.26-.87.49-1.74.68-2.64-.25.33-.53.66-.76,1s-.55.93-.86,1.38-.53.68-.81,1a8.54,8.54,0,0,0-.56.71,9.29,9.29,0,0,1-2.24,2.24c-.61.47-1,.32-1.73-.11a1.78,1.78,0,0,1-.73-2.21c.19-.64.34-1.3.51-1.94a25.74,25.74,0,0,1,1.15-3.1c.18-.44.34-.89.51-1.34a.77.77,0,0,1,1.08-.51,1.65,1.65,0,0,1,1,.9.7.7,0,0,1,0,.44,5.54,5.54,0,0,1-.35.91,23.06,23.06,0,0,0-2,5.41c-.06.27-.06.27.06.73A2.46,2.46,0,0,0,25.84,20a38,38,0,0,0,3-3.78c.55-.78,1.11-1.55,1.66-2.33.28-.39.54-.78.83-1.2a2.22,2.22,0,0,1,1.3.06,1.26,1.26,0,0,1,.63,1.69,28.61,28.61,0,0,0-1.32,3.33A19.41,19.41,0,0,0,31,21.84a6.62,6.62,0,0,0,0,.91,1,1,0,0,0,.27.73,1.92,1.92,0,0,0,1.37-.64A18.92,18.92,0,0,0,34.22,21a25.64,25.64,0,0,0,2.48-4.12c.21-.42.44-.83.66-1.24l.31,0Z"/><path class="cls-1" d="M48.74,16.42a2.43,2.43,0,0,1-.15.56,2.82,2.82,0,0,1-.43.56,22.94,22.94,0,0,0-2.21,3,7.59,7.59,0,0,1-.7.86c-.53.57-1.05,1.15-1.63,1.68a13.62,13.62,0,0,1-2.82,2.05c-.06,0-.31.21-.37.24-.83.52-1.11,1.07-1.83.58a3.28,3.28,0,0,1-.64-.42,2.81,2.81,0,0,1-.54-3.08c.27-.57.48-1.16.72-1.74s.45-1,.64-1.56a12.57,12.57,0,0,1,1.58-2.88c-.06-.05-.1-.1-.12-.1a5.81,5.81,0,0,1-1.73.24.7.7,0,0,1-.32,0,3.23,3.23,0,0,1-1.94-1.62,1,1,0,0,1,0-.76,5.49,5.49,0,0,1,.43-.94c.46-.68,1-1.34,1.43-2A1,1,0,0,1,39.31,11c.16.12.3.25.44.38a1,1,0,0,1,0,1.56,6.84,6.84,0,0,0-1.67,2.05c0,.06,0,.12-.07.18a1.66,1.66,0,0,0,1.18,0c.38-.1.75-.22,1.13-.32s.47-.08.7-.13a1.81,1.81,0,0,1,1.73.67,1,1,0,0,1,0,1.37c-.56.74-1.07,1.52-1.59,2.29a13.08,13.08,0,0,0-1.38,2.65c-.32.83-.57,1.68-.83,2.53a.86.86,0,0,0,0,.85,1.25,1.25,0,0,0,.76-.27,4.19,4.19,0,0,0,1.07-.65,6.79,6.79,0,0,0,.89-.58,16.83,16.83,0,0,0,3.18-3c.91-1.1,1.69-2.31,2.53-3.47.26-.36.42-.81.89-1ZM38.38,21.64c.23-.15.24-.34.17-.66C38.47,21.25,38.27,21.37,38.38,21.64Z"/><path class="cls-1" d="M59.28,13.78a.16.16,0,0,1-.24,0,.13.13,0,0,0-.12,0l-.58.87a.41.41,0,0,0,0,.27,1.06,1.06,0,0,1-.43,1c-.18.13-.26.34-.42.46a1.11,1.11,0,0,0-.31.46,1,1,0,0,1-.15.24,1,1,0,0,0-.29.7,1.37,1.37,0,0,1-.12.48l-.9,2.37a.64.64,0,0,0-.07.2c0,.59-.29,1.14-.32,1.73,0,.4-.1.79-.12,1.19a2,2,0,0,0,.07.62,3.82,3.82,0,0,0,.9,1.65,3.25,3.25,0,0,0,.59.6,1.36,1.36,0,0,0,.65.24,2.67,2.67,0,0,0,1.24-.14,7.91,7.91,0,0,1,1.08-.31,4,4,0,0,0,1.76-1,35.49,35.49,0,0,0,3.29-3.48c.34-.42.67-.85,1-1.29a3.41,3.41,0,0,0,.44-.8,9,9,0,0,1,.45-.88,3,3,0,0,0,.32-.76.22.22,0,0,0-.27,0c-.81.3-1.63.61-2.45.89-.42.14-.86.23-1.3.33l-.21,0-1.83,0a1.21,1.21,0,0,1-.83-.33A.17.17,0,0,1,60,19a.14.14,0,0,1,.14-.13c.49-.07,1-.12,1.46-.2A13.13,13.13,0,0,0,64.07,18c.44-.16.88-.34,1.32-.48a6.63,6.63,0,0,0,1.4-.65c.22-.13.44-.26.68-.38a1.07,1.07,0,0,1,.75-.08,2.51,2.51,0,0,1,1,.49.84.84,0,0,1,.34.74,5.91,5.91,0,0,1-.1.84c-.23,1-.53,2-.84,3-.22.69-.42,1.39-.57,2.1-.08.34-.16.68-.27,1a9.46,9.46,0,0,0-.24,1c-.15.78-.44,1.53-.55,2.32a4.62,4.62,0,0,1-.24.81,8.94,8.94,0,0,0-.29,1,4.35,4.35,0,0,1-.28.8c-.2.48-.45.93-.61,1.43-.24.77-.68,1.44-1,2.18a2.8,2.8,0,0,1-1.1,1.25,1.64,1.64,0,0,1-.66.2,7.4,7.4,0,0,1-.84,0,2,2,0,0,1-.82-.18,3,3,0,0,1-1.33-.89s0-.12,0-.2a1.57,1.57,0,0,0,1.18,0,2.25,2.25,0,0,0,1.07-.76c.34-.48.62-1,.91-1.5a4.61,4.61,0,0,0,.19-.53c.21-.49.44-1,.64-1.48a24.14,24.14,0,0,0,.91-2.51c.26-.92.53-1.85.74-2.79,0-.23.15-.44.21-.67a.68.68,0,0,0,0-.21,1.57,1.57,0,0,0-.54.48,11.24,11.24,0,0,1-1.4,1.39l-.58.51a6.41,6.41,0,0,1-2.67,1.52A5.87,5.87,0,0,1,59,28a4.3,4.3,0,0,1-3-1.09,1.12,1.12,0,0,0-.34-.24,1.46,1.46,0,0,1-.52-.36,6.78,6.78,0,0,1-1.67-2.42,1.75,1.75,0,0,1-.15-.54,12.43,12.43,0,0,1,0-2.11,3,3,0,0,1,.06-.42,31.34,31.34,0,0,1,.94-3.18c.16-.42.36-.82.56-1.22.4-.8.8-1.59,1.21-2.38a17.36,17.36,0,0,1,1.32-2c.44-.61.87-1.23,1.32-1.83a10.43,10.43,0,0,1,1.21-1.46.53.53,0,0,0,.1-.1,7.06,7.06,0,0,1,1.17-1.2,2.78,2.78,0,0,0,.37-.41.85.85,0,0,1,.25-.24,3.41,3.41,0,0,0,.72-.66,4.37,4.37,0,0,1,.94-.83c.67-.44,1.35-.86,2-1.25a10.44,10.44,0,0,1,1.76-.72A1.85,1.85,0,0,1,68,3.28c.33,0,.66.06,1,.07a5.16,5.16,0,0,1,2.09.58,3.78,3.78,0,0,1,.56.3,4.23,4.23,0,0,1,.65.53,2.11,2.11,0,0,1,.47,2.16c-.08.29-.17.59-.28.87a2.44,2.44,0,0,1-.24.43c-.15.24-.31.47-.45.72s-.18.7-.41,1-.45.47-.65.74-.53.6-.79.9a.36.36,0,0,1-.31.12.81.81,0,0,1-.57-.23c-.11-.12-.28-.19-.29-.37L69.88,10a1.67,1.67,0,0,0,.43-.71c.15-.47.33-.93.52-1.39a6.49,6.49,0,0,0,.4-1.49A2.82,2.82,0,0,0,71,4.86a.25.25,0,0,0-.24-.11h-.07a15,15,0,0,1-2,.5,10.64,10.64,0,0,0-2.52,1.06c-.4.24-.79.52-1.18.77-.1.07-.2.14-.22.26a.73.73,0,0,1-.28.47,3.22,3.22,0,0,1-.26.24,6.5,6.5,0,0,0-1,.93,9.76,9.76,0,0,1-.8.79,12,12,0,0,0-1.8,2.07c-.23.33-.49.63-.74.94a1.32,1.32,0,0,1-.22.17c-.12-.17-.17-.18-.25,0a.43.43,0,0,0,0,.12l0,0c-.12.12-.12.12,0,.31h0A.88.88,0,0,1,59.28,13.78Z"/><path class="cls-1" d="M86.77,16.24c-.32.72-.6,1.46-.86,2.2a18.36,18.36,0,0,1-1.59,3.2c-.54.91-1,1.85-1.66,2.71a5,5,0,0,1-1.37,1.45,1.33,1.33,0,0,1-1.12.14,2.34,2.34,0,0,1-1.66-1.59,6.16,6.16,0,0,1-.25-2.63,16.6,16.6,0,0,1,1-3.69c.22-.67.46-1.34.68-2l-.09,0c-.09.17-.19.34-.28.51a25.29,25.29,0,0,1-2.79,4.3,7.16,7.16,0,0,1-1.13,1.24,1.58,1.58,0,0,1-2.06,0,2.79,2.79,0,0,1-.92-3,9.79,9.79,0,0,1,1.93-4.15c.29-.35.56-.71.85-1.07A3.24,3.24,0,0,1,76.54,13a2.25,2.25,0,0,1,2.5.49c.26.31.52.64.8,1,.11-.15.2-.29.3-.42s.18-.23.22-.22c.45.14.55-.46,1-.42a1.45,1.45,0,0,1,1.29,2c-.22.52-.51,1-.71,1.53-.5,1.27-1,2.53-1.45,3.83a8.82,8.82,0,0,0-.27,4.31,1.62,1.62,0,0,0,.11.27,1.87,1.87,0,0,0,1.14-.68,16.3,16.3,0,0,0,2.69-4.05,43.75,43.75,0,0,0,1.7-4.15l.09-.24Zm-7.44-.88c-.37-.6-.51-1.33-1.21-1.75-.15.13-.31.21-.37.33a6.87,6.87,0,0,1-1,1.25,12.31,12.31,0,0,0-2.34,4.38,3.83,3.83,0,0,0,0,1.74c0,.05.08.09.12.14a1.2,1.2,0,0,0,.88-.37,10,10,0,0,0,.94-1,37.19,37.19,0,0,0,2.9-4.38A1.87,1.87,0,0,0,79.33,15.36Z"/><path class="cls-1" d="M97.84,16.42a2.43,2.43,0,0,1-.15.56,2.82,2.82,0,0,1-.43.56,22.94,22.94,0,0,0-2.21,3,7.59,7.59,0,0,1-.7.86c-.53.57-1.05,1.15-1.63,1.68a13.62,13.62,0,0,1-2.82,2.05c-.06,0-.31.21-.37.24-.83.52-1.11,1.07-1.83.58a3.28,3.28,0,0,1-.64-.42,2.81,2.81,0,0,1-.54-3.08c.27-.57.48-1.16.72-1.74s.45-1,.64-1.56a12.57,12.57,0,0,1,1.58-2.88c-.06-.05-.1-.1-.12-.1a5.81,5.81,0,0,1-1.73.24.7.7,0,0,1-.32,0,3.23,3.23,0,0,1-1.94-1.62,1,1,0,0,1,0-.76,5.49,5.49,0,0,1,.43-.94c.46-.68,1-1.34,1.43-2A1,1,0,0,1,88.41,11c.16.12.3.25.44.38a1,1,0,0,1,0,1.56,6.82,6.82,0,0,0-1.67,2.05,1.64,1.64,0,0,0-.07.18,1.66,1.66,0,0,0,1.18,0c.38-.1.75-.22,1.13-.32s.47-.08.7-.13a1.81,1.81,0,0,1,1.73.67,1,1,0,0,1,0,1.37c-.56.74-1.07,1.52-1.59,2.29a13.08,13.08,0,0,0-1.38,2.65c-.32.83-.57,1.68-.83,2.53a.86.86,0,0,0,0,.85,1.25,1.25,0,0,0,.76-.27,4.19,4.19,0,0,0,1.07-.65,6.79,6.79,0,0,0,.89-.58,16.83,16.83,0,0,0,3.18-3c.91-1.1,1.69-2.31,2.53-3.47.26-.36.42-.81.89-1ZM87.47,21.64c.23-.15.24-.34.17-.66C87.56,21.25,87.36,21.37,87.47,21.64Z"/><path class="cls-1" d="M100.54,18.24A13.28,13.28,0,0,1,98,20.82c-.07.05-.16.11-.18.18-.18.54-.69.69-1.11.92a.89.89,0,0,1-.56.1,2.25,2.25,0,0,1-1.71-3,18.46,18.46,0,0,1,1.78-3.1A7,7,0,0,1,98.34,14a3.37,3.37,0,0,1,3.23-.26l.18.08.16,0,.19-.13.23-.15a.89.89,0,0,1,0-.3,9.72,9.72,0,0,1,.32-1.25A39.29,39.29,0,0,1,105,7q.17-.32.31-.64a17.87,17.87,0,0,1,1.9-2.87A19.48,19.48,0,0,1,109.89.63a3,3,0,0,1,2-.62,2.11,2.11,0,0,1,1.91.92,1.7,1.7,0,0,1,.31.77,3.58,3.58,0,0,1-.67,2.51,27,27,0,0,1-2.86,4,51,51,0,0,1-3.92,4.07c-.72.66-1.49,1.25-2.27,1.84a2.1,2.1,0,0,0-.87,1.3c-.27,1.27-.58,2.54-.72,3.84a9.6,9.6,0,0,0,.45,4,1.28,1.28,0,0,0,1.09-.37,8.36,8.36,0,0,0,1.69-2c.76-1.24,1.46-2.51,2.2-3.76a9.67,9.67,0,0,0,.89-2,3.55,3.55,0,0,1,.26-.6.57.57,0,0,1,.53-.37,2.18,2.18,0,0,1,.18.22,2.7,2.7,0,0,1,.14.27A25.19,25.19,0,0,1,107.58,20a21.94,21.94,0,0,1-1.6,2.29,9.33,9.33,0,0,1-1.69,1.69,1.08,1.08,0,0,1-1,.16,2.24,2.24,0,0,1-1.26-1,6.11,6.11,0,0,1-.95-3.4c0-.54.08-1.08.12-1.62,0-.14,0-.29,0-.43l-.13,0C100.87,17.84,100.69,18,100.54,18.24Zm-3.42,2.28c.23-.19.43-.43.67-.61a17.48,17.48,0,0,0,3.6-4.15,1.3,1.3,0,0,0,.26-1l-.44-.34-.5.41a4.16,4.16,0,0,1-.71.55,7.24,7.24,0,0,0-1.74,1.22A8.35,8.35,0,0,0,97,18.38a13.3,13.3,0,0,0-.93,1.92A2.59,2.59,0,0,0,96,21,1.72,1.72,0,0,0,97.12,20.52Zm7.4-7.52c.52-.42,1.06-.82,1.55-1.27.7-.65,1.38-1.32,2-2,.85-.92,1.7-1.86,2.48-2.84a24.26,24.26,0,0,0,2.2-3.46,3.18,3.18,0,0,0,.36-1.89c0-.19,0-.4-.28-.5a3.13,3.13,0,0,1-.66.49,6.75,6.75,0,0,0-2.27,1.82,19,19,0,0,0-3.25,4.76c-.49,1-1,2-1.49,3-.29.6-.54,1.22-.8,1.83Z"/><path class="cls-1" d="M111.52,21.69a13.11,13.11,0,0,0,4.27-4.22c.41-.61.84-1.21,1.28-1.8s.55-.47.88.09a.65.65,0,0,1-.06.18,46.61,46.61,0,0,1-3.66,4.55c-.44.44-.93.84-1.41,1.25-.3.25-.61.49-.9.74a2.08,2.08,0,0,1-2.18.4,3.3,3.3,0,0,1-1.93-4.11,12.06,12.06,0,0,1,.84-2.11,12.43,12.43,0,0,1,3.07-3.83,4.29,4.29,0,0,1,1.14-.83,1.91,1.91,0,0,1,1.74.19,1,1,0,0,1,.45,1.07,2.43,2.43,0,0,1-.52,1.11,10.75,10.75,0,0,1-2.61,2.32c-.38.24-.79.46-1.19.68a1.13,1.13,0,0,0-.48.51,9.85,9.85,0,0,0-.91,2.5,2.06,2.06,0,0,0,.33,1.64A2.65,2.65,0,0,0,111.52,21.69Zm2.42-8.15a11.11,11.11,0,0,0-2.21,2.17C112.94,14.91,113.7,14.29,113.94,13.54Z"/><path class="cls-1" d="M130.23,15.74c-.7,1.24-1.39,2.49-2.12,3.71-.6,1-1.27,2-1.92,2.94-.14.21-.26,0-.44.22a3.4,3.4,0,0,0-.72,1,1.89,1.89,0,0,1-2.28.87,5,5,0,0,1-.65-.3,1.47,1.47,0,0,1-.81-1.31,6.38,6.38,0,0,1,.4-2.75c.3-.85.5-1.73.77-2.59.07-.24.25-.44.33-.67.14-.43.23-.89.37-1.32.31-1,.64-1.93,1-2.9a4.25,4.25,0,0,0,.09-.53,1.54,1.54,0,0,0-1,.63c-.25.32-.52.63-.81.93a8.62,8.62,0,0,0-1.4,2.1,5.92,5.92,0,0,1-.67,1.18,8,8,0,0,0-1,1.65c-.37.76-.75,1.51-1.15,2.26a7,7,0,0,1-.52.74,4,4,0,0,1-.61-.12A1.36,1.36,0,0,1,116,20.26a7.23,7.23,0,0,1,.14-2.2,22.4,22.4,0,0,1,1.09-3.75c.2-.5.34-1,.51-1.52a1.41,1.41,0,0,1,1.65.22,1,1,0,0,1,.3,1.24c-.11.37-.28.73-.41,1.1q-.53,1.47-1,2.94a2.25,2.25,0,0,0,0,.32c.13-.19.2-.28.25-.37a43.29,43.29,0,0,1,3.25-5,5.43,5.43,0,0,1,1.94-1.7,2,2,0,0,1,2.09.2,1.17,1.17,0,0,1,.47,1.27,17.39,17.39,0,0,1-.85,2.8,36.14,36.14,0,0,0-2,5.76,8.73,8.73,0,0,0-.17,2.12.38.38,0,0,0,.51,0,1.55,1.55,0,0,0,.36-.28,11.59,11.59,0,0,0,1.82-1.94c.41-.69.87-1.35,1.3-2s.81-1.34,1.2-2,.66-1.14,1-1.72l.55.07A2.14,2.14,0,0,0,130.23,15.74Zm-7.46,3.66a9.62,9.62,0,0,1,.65-1.68,1.28,1.28,0,0,0,.05-.87c-.29.13-.31.35-.38.55-.24.69-.37,1.41-.68,2.09a3.15,3.15,0,0,0-.34,1.89c.09-.44.6-.76.4-1.29a.2.2,0,0,1,.06-.17C122.72,19.78,122.69,19.57,122.76,19.4Z"/></svg>