<?xml version="1.0" encoding="iso-8859-1"?>
<!-- Generator: Adobe Illustrator 19.0.0, SVG Export Plug-In . SVG Version: 6.00 Build 0)  -->
<svg version="1.1" id="Layer_1" xmlns="http://www.w3.org/2000/svg" xmlns:xlink="http://www.w3.org/1999/xlink" x="0px" y="0px"
	 viewBox="0 0 282.319 282.319" style="enable-background:new 0 0 282.319 282.319;" xml:space="preserve">
<g>
	<g>
		<path style="fill:#D6AA83;" d="M61.992,282.319h167.037l-85.324-72.746c0,0-86.896,62.031-87.682,62.817
			C55.241,273.176,61.992,282.319,61.992,282.319z"/>
		<path style="fill:#CC9F7E;" d="M168.095,251.89l55.893,29.736l-20.67-21.231L144.087,209.9l-3.223,1.703
			c-9.98,7.126-44.396,31.705-66.223,47.353l-2.729,3.165l3.98,8.361l41.763-19.768C133.712,243.113,152.412,243.549,168.095,251.89
			z"/>
		<g>
			<g id="XMLID_30_">
				<g>
					<path style="fill:#A3D661;" d="M132.548,88.002v23.283h-31.494c-23.155,0-41.981-18.986-41.981-42.301V45.733h31.494
						C113.722,45.733,132.548,64.687,132.548,88.002z"/>
					<path style="fill:#A3D661;" d="M222.763,16.516v23.251c0,23.315-18.826,42.301-41.981,42.301h-31.493v-23.25
						c0-23.348,18.826-42.301,41.981-42.301C191.269,16.516,222.763,16.516,222.763,16.516z"/>
					<path style="fill:#2D213F;" d="M244.956,282.319h-24.63l-67.669-60.646c-6.542-5.901-16.452-5.901-23.027,0l-67.637,60.646
						h-24.63l81.396-72.961c4.169-3.752,9.044-6.254,14.175-7.537V127.77h-31.878c-32.167,0-58.369-26.362-58.369-58.786V37.491
						c0-4.586,3.688-8.274,8.21-8.274h39.672c17.158,0,32.584,7.569,43.264,19.499C138.609,21.103,162.534,0,191.269,0h39.704
						c4.522,0,8.178,3.72,8.178,8.274v31.494c0,32.424-26.17,58.786-58.369,58.786h-31.493V201.79
						c0.128,0.032,0.257,0.032,0.353,0.064c4.746,1.251,9.268,3.56,13.245,6.895l0.128,0.128c0.16,0.128,0.321,0.289,0.481,0.417
						c0.032,0.032,0.032,0.032,0.064,0.064L244.956,282.319z M222.763,39.768V16.516h-31.494c-23.155,0-41.981,18.954-41.981,42.301
						v23.251h31.494C203.937,82.069,222.763,63.083,222.763,39.768z M132.548,111.286V88.002c0-23.315-18.826-42.269-41.981-42.269
						H59.073v23.251c0,23.315,18.826,42.301,41.981,42.301h31.494V111.286z"/>
					<path style="fill:#2D213F;" d="M181.263,265.546c0.449-0.898,1.539-1.251,2.437-0.802s1.251,1.571,0.802,2.469
						s-1.571,1.283-2.469,0.802C181.135,267.567,180.782,266.444,181.263,265.546z"/>
					<path style="fill:#2D213F;" d="M159.006,266.637c-1.732-0.898-2.405-3.047-1.507-4.779c0.866-1.764,2.983-2.437,4.714-1.539
						c1.732,0.866,2.437,3.015,1.539,4.779C162.887,266.829,160.77,267.535,159.006,266.637z"/>
					<path style="fill:#2D213F;" d="M142.265,273.853c-0.385-1.251,0.289-2.598,1.539-2.983c1.219-0.417,2.566,0.257,2.983,1.507
						c0.385,1.283-0.289,2.598-1.539,3.015C143.997,275.809,142.682,275.103,142.265,273.853z"/>
					<path style="fill:#2D213F;" d="M126.486,261.441c2.63,1.347,3.656,4.554,2.341,7.184c-1.347,2.63-4.554,3.688-7.152,2.341
						c-2.63-1.347-3.656-4.554-2.341-7.216C120.681,261.12,123.888,260.094,126.486,261.441z"/>
					<path style="fill:#2D213F;" d="M126.037,242.968c2.951,0,5.324,2.405,5.324,5.356s-2.373,5.356-5.324,5.356
						c-2.918,0-5.292-2.405-5.292-5.356C120.746,245.374,123.119,242.968,126.037,242.968z"/>
					<path style="fill:#2D213F;" d="M108.527,251.307c2.598,1.315,3.624,4.554,2.309,7.184c-1.347,2.63-4.554,3.688-7.152,2.341
						c-2.63-1.347-3.656-4.586-2.309-7.216C102.69,250.986,105.897,249.96,108.527,251.307z"/>
				</g>
			</g>
		</g>
		<path style="fill:#8BBC46;" d="M180.782,82.069c23.155,0,41.981-18.986,41.981-42.301V16.516h-4.051
			c2.181,29.473-18.046,64.331-67.515,65.553H180.782z"/>
		<path style="fill:#8BBC46;" d="M101.054,111.286h31.494v-0.199c-37.446,2.46-63.616-19.39-73.474-50.242v8.136
			C59.073,92.3,77.899,111.286,101.054,111.286z"/>
	</g>
</g>
<g>
</g>
<g>
</g>
<g>
</g>
<g>
</g>
<g>
</g>
<g>
</g>
<g>
</g>
<g>
</g>
<g>
</g>
<g>
</g>
<g>
</g>
<g>
</g>
<g>
</g>
<g>
</g>
<g>
</g>
</svg>
